# xmcd
#
# Track frame offsets: 
#        187
#        13545
#        27962
#        46727
#        61900
#        84767
#        103427
#        114965
#        132122
#        145620
#
# Disc length: 2142 seconds
#
# Revision: 4
# Processed by: cddbd v1.5.2PL0 Copyright (c) Steve Scherf et al.
# Submitted via: ExactAudioCopy v1.3
#
DISCID=73085c0a,79085a0a
DTITLE=Mark Chesnutt - Almost Goodbye
DYEAR=1993
DGENRE=Country
TTITLE0=It Sure Is Monday
TTITLE1=Woman, Sensuous Woman
TTITLE2=Almost Goodbye
TTITLE3=I Just Wanted You To Know
TTITLE4=April's Fool
TTITLE5=Texas Is Bigger Than It Used To Be
TTITLE6=My Heart's Too Broke (To Pay Attention)
TTITLE7=Vickie Vance Gotta Dance
TTITLE8=Till A Better Memory Comes Along
TTITLE9=The Will
EXTD=
EXTT0=
EXTT1=
EXTT2=
EXTT3=
EXTT4=
EXTT5=
EXTT6=
EXTT7=
EXTT8=
EXTT9=
PLAYORDER=
